<?xml version="1.0" encoding="UTF-8"?>
<svg xmlns="http://www.w3.org/2000/svg" viewBox="0 0 64 64">
  <defs>
    <linearGradient id="g" x1="0" x2="1" y1="0" y2="1">
      <stop offset="0%" stop-color="#6f42c1"/>
      <stop offset="100%" stop-color="#804DE0"/>
    </linearGradient>
  </defs>
  <rect width="64" height="64" rx="14" ry="14" fill="url(#g)"/>
  <!-- Chain/link icon -->
  <g fill="none" stroke="#ffffff" stroke-width="4" stroke-linecap="round" stroke-linejoin="round">
    <path d="M26 40l-4 4a8 8 0 0 1-11.3-11.3l6-6A8 8 0 0 1 26 19" opacity="0.95"/>
    <path d="M38 24l4-4A8 8 0 0 1 53.3 31.3l-6 6A8 8 0 0 1 38 45" opacity="0.95"/>
    <path d="M24 32h16" opacity="0.95"/>
  </g>
  <!-- Small red heart accent -->
  <path d="M44 50c-3.5-2.8-6-4.9-6-7.6c0-1.9 1.5-3.4 3.4-3.4c1.1 0 2.1.5 2.6 1.3c.5-.8 1.5-1.3 2.6-1.3c1.9 0 3.4 1.5 3.4 3.4c0 2.7-2.5 4.9-6 7.6z" fill="#ef4444"/>
</svg>
